inDegrees=yes
name=ik_Xsens_quaternion
DataType=double
version=3
OpenSimVersion=4.4-2022-07-23-0e9fedc
endheader
time	pelvis_tilt	pelvis_list	pelvis_rotation	pelvis_tx	pelvis_ty	pelvis_tz	hip_flexion_r	hip_adduction_r	hip_rotation_r	knee_angle_r	knee_angle_r_beta	ankle_angle_r	subtalar_angle_r	mtp_angle_r	hip_flexion_l	hip_adduction_l	hip_rotation_l	knee_angle_l	knee_angle_l_beta	ankle_angle_l	subtalar_angle_l	mtp_angle_l	lumbar_extension	lumbar_bending	lumbar_rotation	arm_flex_r	arm_add_r	arm_rot_r	elbow_flex_r	pro_sup_r	wrist_flex_r	wrist_dev_r	arm_flex_l	arm_add_l	arm_rot_l	elbow_flex_l	pro_sup_l	wrist_flex_l	wrist_dev_l
14.16666666666667	0	0	0	0	0.93	0	0	0	0	0	5.241540515187502e-23	0	0	0	0	0	0	0	5.241540515187502e-23	0	0	0	0	0	0	0	0	0	0	0	0	0	-11.28368700748236	-18.74109679496975	-74.60088993174514	11.51082884644057	43.6586503506544	0	0
14.18333333333333	0	0	0	0	0.93	0	0	0	0	0	1.0483081030375e-22	0	0	0	0	0	0	0	1.0483081030375e-22	0	0	0	0	0	0	0	0	0	0	0	0	0	-11.28193549365975	-18.73816850888366	-74.60611029136336	11.52272536736849	43.65898930747718	0	0
14.2	0	0	0	0	0.93	0	0	0	0	0	5.241540515187503e-23	0	0	0	0	0	0	0	5.241540515187503e-23	0	0	0	0	0	0	0	0	0	0	0	0	0	-11.2763047990422	-18.73433722029235	-74.61715234946658	11.51769650300826	43.65914363131633	0	0
14.21666666666667	0	0	0	0	0.93	0	0	0	0	0	5.241540515187503e-23	0	0	0	0	0	0	0	5.241540515187503e-23	0	0	0	0	0	0	0	0	0	0	0	0	0	-11.27468289959782	-18.73115275754956	-74.62778350574266	11.51615075657171	43.65928453638278	0	0
14.23333333333333	0	0	0	0	0.93	0	0	0	0	0	5.241540515187503e-23	0	0	0	0	0	0	0	5.241540515187503e-23	0	0	0	0	0	0	0	0	0	0	0	0	0	-11.27779109193115	-18.72915150877037	-74.63989467645452	11.5213348716398	43.65943210420796	0	0
14.25	0	0	0	0	0.93	0	0	0	0	0	5.241540515187503e-23	0	0	0	0	0	0	0	5.241540515187503e-23	0	0	0	0	0	0	0	0	0	0	0	0	0	-11.27942434237383	-18.72445832083841	-74.6671518571157	11.52128327892515	43.65957004891474	0	0
14.26666666666667	0	0	0	0	0.93	0	0	0	0	0	0	0	0	0	0	0	0	0	0	0	0	0	0	0	0	0	0	0	0	0	0	0	-11.27366485269699	-18.70841552961729	-74.70135047894546	11.51370474717809	43.65976161732073	0	0
14.28333333333333	0	0	0	0	0.93	0	0	0	0	0	-5.241540515187501e-23	0	0	0	0	0	0	0	-5.241540515187501e-23	0	0	0	0	0	0	0	0	0	0	0	0	0	-11.27262962634733	-18.69612303052453	-74.72488417733284	11.51195139831772	43.6599053253087	0	0
14.3	0	0	0	0	0.93	0	0	0	0	0	-5.241540515187502e-23	0	0	0	0	0	0	0	-5.241540515187502e-23	0	0	0	0	0	0	0	0	0	0	2.320694334892561e-37	0	0	-11.27284265345561	-18.6708320166123	-74.73629039414735	11.53705611668081	43.66061814380936	0	0
14.31666666666667	0	0	0	0	0.93	0	0	0	0	0	-5.877471754111438e-39	0	0	0	0	0	0	0	-5.877471754111438e-39	0	0	0	0	0	0	0	0	0	0	0	0	0	-11.23561245367951	-18.69418610039839	-74.72605746319434	11.49308255276945	43.66102331337194	0	0
14.33333333333333	0	0	0	0	0.93	0	0	0	0	0	0	0	0	0	0	0	0	0	0	0	0	0	0	0	0	0	0	0	0	0	0	0	-11.14407179021184	-18.79518113709462	-74.68610113700964	11.33786891986445	43.6615673251188	0	0
14.35	0	0	0	0	0.93	0	0	0	0	0	0	0	0	0	0	0	0	0	0	0	0	0	0	0	0	0	0	0	0	0	0	0	-11.03305298578845	-18.92164036577672	-74.65885579813781	11.15094955264254	43.66222301115344	0	0
14.36666666666667	0	0	0	0	0.93	0	0	0	0	0	0	0	0	0	0	0	0	0	0	0	0	0	0	0	0	0	0	0	0	1.052357267868557e-38	0	0	-10.9492913202941	-18.99079085231692	-74.67891940040973	11.02538609190929	43.66287689570707	0	0
14.38333333333333	0	0	0	0	0.93	0	0	0	0	2.44498018310819e-39	0	0	0	0	0	0	0	2.44498018310819e-39	0	0	0	0	0	0	0	0	0	0	0	0	0	0	-10.89077506435299	-19.00517572689039	-74.67380315909743	10.96939883208344	43.66344583947848	0	0
14.4	0	0	0	0	0.93	0	0	0	0	0	0	0	0	0	0	0	0	0	0	0	0	0	0	0	0	0	0	0	0	0	0	0	-10.84103749456751	-18.9848017858025	-74.62661600686604	10.95921720196653	43.66370906262631	0	0
14.41666666666667	3.448364295351686e-34	-8.620910738379216e-35	0	0	0.93	0	-8.642933057380346e-36	0	0	1.858712919041349e-39	3.009612558000926e-41	0	0	0	-8.642933057380346e-36	0	0	1.858712919041349e-39	3.009612558000926e-41	0	0	0	-8.755612468666391e-35	0	1.333547129843035e-34	0	0	0	0	0	0	0	-10.7974447482798	-18.94561444923537	-74.56916667421997	10.92792026210285	43.66398752381782	0	0
14.43333333333333	0	0	0	0	0.93	0	0	0	0	0	0	0	0	0	0	0	0	0	0	0	0	0	0	0	0	0	0	0	0	0	0	0	-10.75160897886773	-18.89253358061211	-74.51496573648238	10.90021274204853	43.66424086011253	0	0
14.45	0	0	0	0	0.93	0	0	0	0	0	0	0	0	0	0	0	0	0	0	0	0	0	0	0	0	0	0	0	0	0	0	0	-10.71072966900826	-18.82280418050708	-74.4667748689982	10.90170271104379	43.66449538255677	0	0
14.46666666666667	-6.172704251551594e-25	-1.956042138413641e-22	4.694509626254533e-24	-4.419356563229152e-25	0.93	-4.810600017782565e-25	-3.200021180904275e-29	1.657154155639921e-23	0	0	-1.956989410535344e-17	1.407088998266768e-14	-6.934554877834153e-20	-9.622389738695074e-18	-2.802662417710021e-23	-2.097613257231958e-28	-7.784271925540246e-24	0	-1.956976910075817e-17	-1.557059069326194e-15	-8.666472747291158e-21	2.739644999808008e-22	-4.998528884658581e-25	5.546747708382366e-24	3.743265342483913e-24	3.319052811611146e-22	-4.458430114575694e-14	-1.897038911738566e-15	0	0	1.156406500396739e-22	3.683326132257001e-22	-10.67144136621813	-18.72852532812375	-74.42244411074385	10.91567705556029	43.66476933569825	8.227916825569801e-23	3.065427838810508e-23
14.48333333333333	0	0	0	0	0.93	0	0	0	0	0	0	0	0	0	0	0	0	0	0	0	0	0	0	0	0	-1.347017302871753e-36	0	0	0	0	0	0	-10.63913645405628	-18.60262680945192	-74.38356228857724	10.93895333005953	43.66618777150394	0	0
14.5	-2.01002197902807e-24	-2.250592384553613e-17	5.008377802471091e-24	2.1573002595034e-18	0.93	1.438193676187872e-18	-4.524641476678379e-28	1.324660834357732e-17	0	0	-1.324900571459683e-18	5.732381452375079e-14	-1.989130983445849e-22	-1.862800859910521e-17	2.606102900889569e-17	5.48186165881965e-26	-5.007045312771565e-16	0	-1.324899334051349e-18	-1.866931989323221e-13	4.065881778149534e-22	-1.466266027083397e-17	-3.037939065796425e-26	2.52547938108254e-16	8.474666805109552e-24	4.592935282695727e-24	1.091097110223289e-15	-5.347577188658024e-14	0	0	3.533835375206072e-16	1.496673185112975e-15	-10.60451514531507	-18.45268786902904	-74.36137346285858	10.94807148517427	43.66754487606621	7.505665836205978e-18	9.905207731636334e-16
14.51666666666667	0	0	0	0	0.93	0	0	0	0	0	0	0	0	0	0	0	0	0	0	0	0	0	0	0	0	0	0	0	0	0	0	0	-10.57902237740398	-18.27574943057194	-74.34254718281061	10.96584105844685	43.66910261321325	0	0
14.53333333333333	0	0	0	0	0.93	0	0	0	0	0	0	0	0	0	0	0	0	0	0	0	0	0	0	0	0	0	0	0	0	0	0	0	-10.55997984483413	-18.07552059256833	-74.32746622864524	11.01097730802118	43.67101826110592	0	0
14.55	0	0	0	0	0.93	0	0	0	0	0	0	0	0	0	0	0	0	0	0	0	0	0	0	0	0	0	0	0	0	0	0	0	-10.5375337402978	-17.85720199247988	-74.30975676809629	11.04104602676026	43.67287408871339	0	0
14.56666666666667	7.207876570928157e-29	3.814041349215237e-24	-1.336966762101463e-28	1.607973951549731e-23	0.93	-5.125209058072195e-25	-1.802088896797164e-34	3.691426139705784e-24	0	0	-1.534390320815664e-17	-7.919483419263224e-19	3.515893187360071e-25	-1.956818700906513e-21	4.579300698947464e-24	3.873764125049508e-36	-1.34114689348031e-23	0	-1.534408704120723e-17	-3.320633701212169e-19	5.951054981193524e-24	4.33960241207484e-23	1.433020856730573e-29	-7.112635958214568e-28	7.555019001346857e-29	-2.520856258313158e-21	-1.331537508466725e-18	-2.427125019194962e-18	0	0	-2.967831825745791e-23	-3.37896746610143e-24	-10.50612959485206	-17.61030879009094	-74.28186643035615	11.07580701054582	43.67502854026648	-5.320883204375085e-24	4.973402827973414e-24
14.58333333333333	0	0	0	0	0.93	0	0	0	0	0	0	0	0	0	0	0	0	0	0	0	0	0	0	0	0	0	0	0	0	0	0	0	-10.47742434852692	-17.33828916476846	-74.21535391677148	11.13555380018203	43.6777753654581	0	0
14.6	0	0	0	0	0.93	0	0	0	0	0	0	0	0	0	0	0	0	0	0	0	0	0	0	0	0	0	0	0	0	0	0	0	-10.44228270373201	-17.0411568639699	-74.11907291943936	11.20632426283231	43.68091325063215	0	0
14.61666666666667	0	0	0	0	0.93	0	0	0	0	2.568654192150006e-39	-3.480378858342895e-41	0	0	0	0	0	0	2.568654192150006e-39	-3.480378858342895e-41	0	0	0	0	0	0	0	0	0	1.9887296216339e-39	0	0	0	-10.40569324624575	-16.71011791415632	-73.98695898590937	11.3183714159624	43.68493035677585	0	0
14.63333333333333	0	0	0	0	0.93	0	0	0	0	0	1.577721810442024e-30	0	0	0	0	0	0	0	0	0	0	0	0	0	0	0	0	0	0	0	0	0	-10.35327556044379	-16.36058994582736	-73.81575828519425	11.44043325704323	43.68924780832891	0	0
14.65	0	0	0	0	0.93	0	0	0	0	0	0	0	0	0	0	0	0	0	0	0	0	0	0	0	0	0	0	0	0	0	0	0	-10.2944309485754	-15.98036285213452	-73.62117104233468	11.57672912167862	43.69371337755308	0	0
